<svg width="109" height="108" viewBox="0 0 109 108" fill="none" xmlns="http://www.w3.org/2000/svg">
<circle cx="54.5" cy="54" r="54" fill="#A8D6AE"/>
<path d="M40.2048 27.2758C38.5893 27.2758 37.3235 28.2169 37.3235 29.4183V31.7744H32.0432C31.1165 31.7755 30.228 32.1441 29.5727 32.7994C28.9175 33.4547 28.5489 34.3432 28.5478 35.2699V77.2319C28.5493 78.1582 28.9181 79.046 29.5734 79.7007C30.2287 80.3554 31.1169 80.7235 32.0432 80.7242H75.9599C76.8858 80.7231 77.7734 80.3548 78.4281 79.7001C79.0828 79.0454 79.4511 78.1578 79.4522 77.2319V35.2699C79.4515 34.3436 79.0835 33.4553 78.4288 32.8C77.7741 32.1448 76.8862 31.7759 75.9599 31.7744H70.6763V29.4183C70.6763 28.2169 69.4116 27.2758 67.7981 27.2758C66.1825 27.2758 64.9168 28.2169 64.9168 29.4183V31.7744H56.8814V29.4183C56.8814 28.2169 55.6156 27.2758 54 27.2758C52.3843 27.2758 51.1186 28.2169 51.1186 29.4183V31.7744H43.086V29.4183C43.0861 28.2169 41.8205 27.2758 40.2048 27.2758ZM39.0831 29.4314C39.1363 29.3161 39.5407 29.0355 40.2048 29.0355C40.869 29.0355 41.2732 29.3161 41.3266 29.4314V31.7744H39.0831V29.4314ZM30.307 42.7715H77.6925V68.9512H71.1342C70.9009 68.9512 70.6771 69.0439 70.5121 69.2089C70.3471 69.3739 70.2544 69.5977 70.2544 69.831V76.3897H32.0432C31.5829 76.3892 31.1416 76.2061 30.8162 75.8806C30.4908 75.5551 30.3078 75.1138 30.3074 74.6535L30.307 42.7715ZM76.4479 70.7108L72.014 75.1452V70.7106L76.4479 70.7108ZM75.9599 78.9645H32.0432C31.6698 78.9643 31.3064 78.8438 31.0068 78.621C30.7072 78.3982 30.4873 78.0848 30.3797 77.7273C30.8902 78.0048 31.4621 78.1498 32.0432 78.1491H71.1342C71.3676 78.149 71.5914 78.0563 71.7565 77.8914L77.6929 71.9549V77.2319C77.6924 77.6913 77.5096 78.1318 77.1847 78.4566C76.8598 78.7814 76.4193 78.9641 75.9599 78.9645ZM66.6765 29.4314C66.7289 29.3165 67.1328 29.036 67.7982 29.036C68.4618 29.036 68.865 29.3165 68.9168 29.4313V31.7744H66.6766L66.6765 29.4314ZM52.8782 29.4314C52.9316 29.3162 53.3358 29.0355 54 29.0355C54.6641 29.0355 55.0683 29.3161 55.1217 29.4314V31.7744H52.8782V29.4314ZM54 37.2628C54.2333 37.2628 54.4571 37.1701 54.6221 37.0051C54.7871 36.8401 54.8798 36.6163 54.8798 36.383C54.8798 36.1496 54.7871 35.9258 54.6221 35.7608C54.4571 35.5958 54.2333 35.5031 54 35.5031C53.3384 35.5031 52.9332 35.2221 52.8782 35.1061V33.534H64.9169V35.1202C64.9169 36.3216 66.1825 37.2627 67.7982 37.2627C68.0316 37.2627 68.2554 37.17 68.4203 37.005C68.5853 36.84 68.678 36.6162 68.678 36.3828C68.678 36.1495 68.5853 35.9257 68.4203 35.7607C68.2554 35.5957 68.0316 35.503 67.7982 35.503C67.1352 35.503 66.7305 35.2222 66.6765 35.1066V33.5339H75.9599C76.4197 33.5349 76.8603 33.7181 77.1852 34.0436C77.51 34.369 77.6925 34.81 77.6925 35.2698V41.0118H30.3074V35.2699C30.3079 34.8097 30.4909 34.3684 30.8163 34.043C31.1417 33.7176 31.583 33.5345 32.0432 33.534H37.3237V35.1202C37.3237 36.3216 38.5893 37.2627 40.205 37.2627C40.4384 37.2627 40.6622 37.17 40.8272 37.005C40.9922 36.84 41.0849 36.6162 41.0849 36.3828C41.0849 36.1495 40.9922 35.9257 40.8272 35.7607C40.6622 35.5957 40.4384 35.503 40.205 35.503C39.5434 35.503 39.1383 35.2219 39.0833 35.106V33.534H51.1186V35.1202C51.1186 36.3216 52.3843 37.2628 54 37.2628ZM46.6769 53.2369H51.1537C51.387 53.2369 51.6108 53.1442 51.7758 52.9792C51.9408 52.8142 52.0335 52.5904 52.0335 52.3571V48.4072C52.0335 48.1738 51.9408 47.9501 51.7758 47.7851C51.6108 47.6201 51.387 47.5274 51.1537 47.5274H46.6769C46.4436 47.5274 46.2198 47.6201 46.0548 47.7851C45.8898 47.9501 45.7971 48.1738 45.7971 48.4072V52.3571C45.7971 52.5904 45.8898 52.8142 46.0548 52.9792C46.2198 53.1442 46.4436 53.2369 46.6769 53.2369ZM47.5567 49.287H50.2739V51.4773H47.5567V49.287ZM56.8463 53.2369H61.323C61.5563 53.2369 61.7801 53.1442 61.9451 52.9792C62.1101 52.8142 62.2028 52.5904 62.2028 52.3571V48.4072C62.2028 48.1738 62.1101 47.9501 61.9451 47.7851C61.7801 47.6201 61.5563 47.5274 61.323 47.5274H56.8463C56.6129 47.5274 56.3892 47.6201 56.2242 47.7851C56.0592 47.9501 55.9665 48.1738 55.9665 48.4072V52.3571C55.9665 52.5904 56.0592 52.8142 56.2242 52.9792C56.3892 53.1442 56.6129 53.2369 56.8463 53.2369ZM57.7261 49.287H60.4432V51.4773H57.7261V49.287ZM36.5075 62.9012H40.9873C41.2206 62.9012 41.4444 62.8085 41.6094 62.6435C41.7744 62.4785 41.8671 62.2548 41.8671 62.0214V58.0746C41.8671 57.8413 41.7744 57.6175 41.6094 57.4525C41.4444 57.2875 41.2206 57.1948 40.9873 57.1948H36.5075C36.2742 57.1948 36.0504 57.2875 35.8854 57.4525C35.7204 57.6175 35.6277 57.8413 35.6277 58.0746V62.0214C35.6277 62.2548 35.7204 62.4785 35.8854 62.6435C36.0504 62.8085 36.2742 62.9012 36.5075 62.9012ZM37.3874 58.9544H40.1075V61.1416H37.3874V58.9544ZM46.6769 62.9012H51.1537C51.387 62.9012 51.6108 62.8085 51.7758 62.6435C51.9408 62.4785 52.0335 62.2548 52.0335 62.0214V58.0746C52.0335 57.8413 51.9408 57.6175 51.7758 57.4525C51.6108 57.2875 51.387 57.1948 51.1537 57.1948H46.6769C46.4436 57.1948 46.2198 57.2875 46.0548 57.4525C45.8898 57.6175 45.7971 57.8413 45.7971 58.0746V62.0214C45.7971 62.2548 45.8898 62.4785 46.0548 62.6435C46.2198 62.8085 46.4436 62.9012 46.6769 62.9012ZM47.5567 58.9544H50.2739V61.1416H47.5567V58.9544ZM56.8463 62.9012H61.323C61.5563 62.9012 61.7801 62.8085 61.9451 62.6435C62.1101 62.4785 62.2028 62.2548 62.2028 62.0214V58.0746C62.2028 57.8413 62.1101 57.6175 61.9451 57.4525C61.7801 57.2875 61.5563 57.1948 61.323 57.1948H56.8463C56.6129 57.1948 56.3892 57.2875 56.2242 57.4525C56.0592 57.6175 55.9665 57.8413 55.9665 58.0746V62.0214C55.9665 62.2548 56.0592 62.4785 56.2242 62.6435C56.3892 62.8085 56.6129 62.9012 56.8463 62.9012ZM57.7261 58.9544H60.4432V61.1416H57.7261V58.9544ZM36.5075 72.5656H40.9873C41.2206 72.5656 41.4444 72.4729 41.6094 72.3079C41.7744 72.1429 41.8671 71.9191 41.8671 71.6858V67.739C41.8671 67.5056 41.7744 67.2818 41.6094 67.1169C41.4444 66.9519 41.2206 66.8592 40.9873 66.8592H36.5075C36.2742 66.8592 36.0504 66.9519 35.8854 67.1169C35.7204 67.2818 35.6277 67.5056 35.6277 67.739V71.6858C35.6277 71.9191 35.7204 72.1429 35.8854 72.3079C36.0504 72.4729 36.2742 72.5656 36.5075 72.5656ZM37.3874 68.6188H40.1075V70.806H37.3874V68.6188ZM46.6769 72.5656H51.1537C51.387 72.5656 51.6108 72.4729 51.7758 72.3079C51.9408 72.1429 52.0335 71.9191 52.0335 71.6858V67.739C52.0335 67.5056 51.9408 67.2818 51.7758 67.1169C51.6108 66.9519 51.387 66.8592 51.1537 66.8592H46.6769C46.4436 66.8592 46.2198 66.9519 46.0548 67.1169C45.8898 67.2818 45.7971 67.5056 45.7971 67.739V71.6858C45.7971 71.9191 45.8898 72.1429 46.0548 72.3079C46.2198 72.4729 46.4436 72.5656 46.6769 72.5656ZM47.5567 68.6188H50.2739V70.806H47.5567V68.6188ZM36.5075 53.2369H40.9873C41.2206 53.2369 41.4444 53.1442 41.6094 52.9792C41.7744 52.8142 41.8671 52.5904 41.8671 52.3571V48.4072C41.8671 48.1738 41.7744 47.9501 41.6094 47.7851C41.4444 47.6201 41.2206 47.5274 40.9873 47.5274H36.5075C36.2742 47.5274 36.0504 47.6201 35.8854 47.7851C35.7204 47.9501 35.6277 48.1738 35.6277 48.4072V52.3571C35.6277 52.5904 35.7204 52.8142 35.8854 52.9792C36.0504 53.1442 36.2742 53.2369 36.5075 53.2369ZM37.3874 49.287H40.1075V51.4773H37.3874V49.287ZM71.4924 57.1948H67.0156C66.7823 57.1948 66.5585 57.2875 66.3935 57.4525C66.2285 57.6175 66.1358 57.8413 66.1358 58.0746V62.0214C66.1358 62.2548 66.2285 62.4785 66.3935 62.6435C66.5585 62.8085 66.7823 62.9012 67.0156 62.9012H71.4924C71.7258 62.9012 71.9496 62.8085 72.1146 62.6435C72.2795 62.4785 72.3722 62.2548 72.3722 62.0214V58.0746C72.3722 57.8413 72.2795 57.6175 72.1146 57.4525C71.9496 57.2875 71.7258 57.1948 71.4924 57.1948ZM70.6126 61.1416H67.8955V58.9544H70.6126V61.1416ZM56.8463 72.5656H61.323C61.5563 72.5656 61.7801 72.4729 61.9451 72.3079C62.1101 72.1429 62.2028 71.9191 62.2028 71.6858V67.739C62.2028 67.5056 62.1101 67.2818 61.9451 67.1169C61.7801 66.9519 61.5563 66.8592 61.323 66.8592H56.8463C56.6129 66.8592 56.3892 66.9519 56.2242 67.1169C56.0592 67.2818 55.9665 67.5056 55.9665 67.739V71.6858C55.9665 71.9191 56.0592 72.1429 56.2242 72.3079C56.3892 72.4729 56.6129 72.5656 56.8463 72.5656ZM57.7261 68.6188H60.4432V70.806H57.7261V68.6188ZM66.2712 50.9362C66.1886 50.8549 66.1228 50.7581 66.0777 50.6514C66.0325 50.5446 66.009 50.43 66.0083 50.314C66.0076 50.1981 66.0298 50.0832 66.0737 49.9759C66.1175 49.8687 66.1822 49.7711 66.2638 49.6888C66.3455 49.6066 66.4426 49.5413 66.5496 49.4967C66.6566 49.4521 66.7714 49.4291 66.8873 49.429C67.0032 49.4289 67.118 49.4517 67.2251 49.4961C67.3321 49.5405 67.4294 49.6056 67.5112 49.6877L68.6433 50.812L70.9457 48.0913C71.0965 47.9132 71.3118 47.8022 71.5443 47.7829C71.7769 47.7635 72.0076 47.8373 72.1857 47.9881C72.3638 48.1388 72.4748 48.3541 72.4942 48.5867C72.5135 48.8192 72.4397 49.0499 72.289 49.228L69.371 52.676C69.2925 52.7688 69.1956 52.8443 69.0864 52.8978C68.9773 52.9512 68.8582 52.9815 68.7368 52.9867C68.7241 52.9867 68.7114 52.9875 68.6988 52.9875C68.4665 52.9875 68.2436 52.8956 68.0788 52.7319L66.2712 50.9362Z" fill="#005740"/>
</svg>
