<svg width="109" height="108" viewBox="0 0 109 108" fill="none" xmlns="http://www.w3.org/2000/svg">
<circle cx="54.5" cy="54" r="54" fill="#A8D6AE"/>
<g clip-path="url(#clip0_0_95)">
<path d="M63.6094 46.3594C62.8994 46.3523 62.5023 47.0266 62.5937 47.6797L52.2598 51.4375H48.8828C43.8585 51.6843 44.3653 58.9267 49.3906 58.5469V61.5937C49.3906 62.1554 49.8456 62.6094 50.4062 62.6094C50.9669 62.6094 51.4219 62.1554 51.4219 61.5937V58.5469H52.2598L62.5937 62.3047C62.3642 63.8312 64.5001 64.1531 64.625 62.6094V61.5937V47.375C64.625 46.8134 64.17 46.3594 63.6094 46.3594ZM47.3594 54.9922C47.3594 54.1523 48.0429 53.4687 48.8828 53.4687H51.4219V56.5156H48.8828C48.0429 56.5156 47.3594 55.8321 47.3594 54.9922ZM53.4531 56.8203V53.1641L62.5937 49.8409V60.1445L53.4531 56.8203Z" fill="#005740"/>
<path d="M80.875 54.4844C79.1637 54.4844 77.7032 55.5508 77.106 57.0529L73.7088 56.6243C73.8449 55.11 73.7159 53.5358 73.4224 52.0773L76.0559 51.3837C76.5982 51.2405 76.9222 50.6849 76.779 50.1426C76.6368 49.6012 76.0833 49.2752 75.5379 49.4194L72.8942 50.1151C72.361 48.4942 71.5942 46.9809 70.6324 45.6108L78.4345 39.4287C80.9806 41.4803 85.0076 39.4907 84.9365 36.2011C84.9365 33.9606 83.1145 32.1386 80.874 32.1386C78.0028 32.0726 75.9411 35.2596 77.1649 37.8423L69.3639 44.0234C66.4115 40.7176 62.217 38.5604 57.5146 38.2841V35.0412C62.0626 33.8255 61.2491 27.1234 56.499 27.0605C51.7489 27.1244 50.9354 33.8255 55.4834 35.0412V38.2841C51.6443 38.5086 48.1384 39.9782 45.3749 42.3151L40.638 37.3305C42.3615 34.768 40.313 31.0336 37.2021 31.124C34.9627 31.124 33.1396 32.946 33.1396 35.1865C33.0584 38.2029 36.5856 40.2748 39.1602 38.7239L43.9093 43.7218C42.4041 45.3305 41.2057 47.2216 40.3993 49.3128L34.464 47.4217C33.9298 47.2511 33.358 47.5466 33.1884 48.0808C33.0177 48.6151 33.3133 49.1869 33.8475 49.3575L39.7849 51.2486C39.1602 53.6048 39.0607 56.2769 39.5411 58.689L35.6726 59.6559C33.7074 56.0027 28.0716 57.3992 28.0615 61.5927C28.2291 66.943 35.9803 66.9694 36.1834 61.6212L40.0235 60.6614C41.1631 64.2912 43.4797 67.398 46.5154 69.5593L42.4793 76.0176C39.9402 75.129 37.1544 77.1907 37.2021 79.874C37.2021 82.1144 39.0241 83.9365 41.2646 83.9365C44.7675 84.0137 46.6637 79.5358 44.2059 77.0881L48.2288 70.6501C50.4052 71.8424 52.8691 72.5605 55.4824 72.7138V78.7588C55.4824 79.3205 55.9374 79.7744 56.498 79.7744C57.0586 79.7744 57.5136 79.3205 57.5136 78.7588V72.7138C60.789 72.5219 63.8206 71.426 66.3567 69.6537L70.5573 75.3778C68.4742 77.9179 70.4598 81.9773 73.7636 81.9052C76.0031 81.9052 77.8261 80.0832 77.8261 77.8427C77.8901 74.9837 74.7345 72.9271 72.1518 74.1174L67.9471 68.3872C70.7604 65.8858 72.752 62.4895 73.463 58.6403L76.8633 59.0689C77.6199 64.0475 84.8075 63.5976 84.9355 58.5458C84.9355 56.3054 83.1134 54.4833 80.873 54.4833L80.875 54.4844ZM80.875 34.1719C83.5532 34.2419 83.5532 38.1643 80.875 38.2344C78.1968 38.1643 78.1968 34.2419 80.875 34.1719ZM32.125 63.625C29.4468 63.5549 29.4468 59.6326 32.125 59.5625C34.8032 59.6326 34.8032 63.5549 32.125 63.625ZM41.2656 81.9062C38.5874 81.8362 38.5874 77.9138 41.2656 77.8437C43.9438 77.9138 43.9438 81.8362 41.2656 81.9062ZM75.7969 77.8437C75.7268 80.5219 71.8045 80.5219 71.7344 77.8437C71.8045 75.1655 75.7268 75.1655 75.7969 77.8437ZM54.4688 31.125C54.5388 28.4468 58.4612 28.4468 58.5313 31.125C58.4612 33.8032 54.5388 33.8032 54.4688 31.125ZM35.1719 35.1875C35.242 32.5093 39.1643 32.5093 39.2344 35.1875C39.1582 37.8616 35.243 37.8667 35.1719 35.1875ZM56.5 70.7344C48.0998 70.7344 41.2656 63.9002 41.2656 55.5C42.1025 35.2891 70.9006 35.2951 71.7344 55.5C71.7344 63.9002 64.9002 70.7344 56.5 70.7344ZM80.875 60.5781C78.1968 60.508 78.1968 56.5857 80.875 56.5156C83.5532 56.5857 83.5532 60.508 80.875 60.5781Z" fill="#005740"/>
</g>
<defs>
<clipPath id="clip0_0_95">
<rect width="62" height="62" fill="white" transform="translate(24 23)"/>
</clipPath>
</defs>
</svg>
