<svg width="109" height="108" viewBox="0 0 109 108" fill="none" xmlns="http://www.w3.org/2000/svg">
<circle cx="54.5" cy="54" r="54" fill="#A8D6AE"/>
<path d="M46.8897 49.4076C47.3942 49.4076 47.8874 49.258 48.3069 48.9777C48.7264 48.6974 49.0534 48.299 49.2465 47.8329C49.4395 47.3668 49.4901 46.8538 49.3916 46.359C49.2932 45.8642 49.0503 45.4096 48.6935 45.0529C48.3367 44.6961 47.8822 44.4532 47.3874 44.3547C46.8925 44.2563 46.3796 44.3068 45.9135 44.4999C45.4474 44.693 45.049 45.0199 44.7687 45.4394C44.4884 45.8589 44.3387 46.3521 44.3387 46.8567C44.3395 47.533 44.6085 48.1814 45.0867 48.6596C45.565 49.1379 46.2134 49.4069 46.8897 49.4076ZM46.8897 46.0064C47.0579 46.0064 47.2223 46.0562 47.3621 46.1497C47.5019 46.2431 47.6109 46.3759 47.6753 46.5313C47.7396 46.6867 47.7565 46.8576 47.7237 47.0226C47.6909 47.1875 47.6099 47.339 47.491 47.4579C47.372 47.5769 47.2205 47.6578 47.0556 47.6907C46.8906 47.7235 46.7197 47.7066 46.5643 47.6423C46.4089 47.5779 46.2761 47.4689 46.1827 47.3291C46.0893 47.1893 46.0394 47.0249 46.0394 46.8567C46.0396 46.6312 46.1293 46.4151 46.2887 46.2557C46.4481 46.0963 46.6643 46.0066 46.8897 46.0064Z" fill="#005740"/>
<path d="M53.6923 64.7134H55.3929C55.3896 63.5267 55.7423 62.3662 56.4055 61.3822C57.0688 60.3981 58.012 59.6357 59.1133 59.1935L58.4751 57.6172C57.0594 58.1856 55.8468 59.1658 54.9941 60.4309C54.1414 61.696 53.6879 63.1878 53.6923 64.7134Z" fill="#005740"/>
<path d="M78.0326 72.151L78.4854 71.0946C78.9748 69.9497 79.0088 68.6611 78.5805 67.4919C78.1523 66.3227 77.294 65.3611 76.1808 64.8032L75.4203 66.3242C76.1458 66.6878 76.7052 67.3146 76.9843 68.0766C77.2634 68.8387 77.2412 69.6785 76.9223 70.4247L76.4343 71.5634C75.3909 71.4046 74.3258 71.6389 73.4454 72.2208C72.565 72.8027 71.932 73.6908 71.6692 74.7129C71.4064 75.735 71.5325 76.8183 72.023 77.7528C72.5135 78.6872 73.3335 79.4062 74.324 79.7704C75.3146 80.1346 76.405 80.118 77.384 79.7238C78.363 79.3297 79.1608 78.5861 79.6226 77.6371C80.0845 76.6882 80.1776 75.6016 79.8838 74.588C79.59 73.5743 78.9303 72.7059 78.0326 72.151ZM75.8005 78.3185C75.296 78.3185 74.8028 78.1689 74.3833 77.8886C73.9638 77.6082 73.6368 77.2098 73.4438 76.7437C73.2507 76.2776 73.2002 75.7647 73.2986 75.2698C73.397 74.775 73.64 74.3205 73.9967 73.9637C74.3535 73.607 74.808 73.364 75.3029 73.2656C75.7977 73.1671 76.3106 73.2177 76.7767 73.4107C77.2429 73.6038 77.6413 73.9308 77.9216 74.3503C78.2019 74.7698 78.3515 75.263 78.3515 75.7675C78.3507 76.4438 78.0817 77.0922 77.6035 77.5705C77.1252 78.0487 76.4768 78.3177 75.8005 78.3185Z" fill="#005740"/>
<path d="M79.5844 48.2865C79.1606 47.3249 78.4718 46.5038 77.5986 45.9192L80.4896 44.1846L79.6146 42.7262L77.1234 44.221L78.3261 39.4101L76.6762 38.9976L75.2745 44.6045L73.1808 39.7192L71.6177 40.3891L73.5439 44.8837C72.0965 45.0344 70.7677 45.7524 69.8483 46.8805V45.5575C69.8478 45.1616 69.7556 44.7711 69.579 44.4167L65.5967 36.4521V31.551C65.5967 31.3254 65.5071 31.1092 65.3476 30.9497C65.1882 30.7902 64.9719 30.7006 64.7464 30.7006H57.9438C57.7183 30.7006 57.502 30.7902 57.3426 30.9497C57.1831 31.1092 57.0935 31.3254 57.0935 31.551V36.4521L54.9677 40.7037L51.6668 34.1019H51.9916C52.1208 34.1019 52.2483 34.0724 52.3645 34.0158C52.4806 33.9591 52.5823 33.8767 52.6618 33.7749C52.7413 33.673 52.7966 33.5544 52.8234 33.428C52.8502 33.3016 52.8479 33.1707 52.8165 33.0453L51.9662 29.6441C51.9202 29.4601 51.8141 29.2968 51.6646 29.1801C51.5151 29.0634 51.3309 29 51.1413 29H42.6381C42.4485 29 42.2643 29.0634 42.1148 29.1801C41.9653 29.2968 41.8592 29.4601 41.8132 29.6441L40.9628 33.0453C40.9315 33.1707 40.9292 33.3016 40.956 33.428C40.9828 33.5544 41.0381 33.673 41.1176 33.7749C41.1971 33.8767 41.2988 33.9591 41.4149 34.0158C41.5311 34.0724 41.6586 34.1019 41.7878 34.1019H42.1126L38.6558 41.0154C38.4792 41.3698 38.387 41.7603 38.3865 42.1563V54.5095H36.3565L35.9235 46.7152C35.8871 46.0642 35.6029 45.4519 35.1293 45.0038C34.6557 44.5557 34.0285 44.3059 33.3765 44.3057H29.033V46.0064H33.3765C33.5938 46.0064 33.8028 46.0897 33.9607 46.239C34.1186 46.3884 34.2133 46.5925 34.2254 46.8094L34.6532 54.5095H29.8833C29.7666 54.5095 29.6511 54.5336 29.544 54.5802C29.4369 54.6268 29.3406 54.695 29.261 54.7804C29.1815 54.8659 29.1203 54.9668 29.0815 55.0769C29.0426 55.1871 29.0269 55.304 29.0352 55.4205L30.623 77.6499C30.671 78.2926 30.9597 78.8935 31.4314 79.3327C31.903 79.7718 32.523 80.017 33.1675 80.0191H43.6056C44.25 80.017 44.87 79.7718 45.3417 79.3327C45.8133 78.8935 46.102 78.2926 46.15 77.6499L46.2843 75.7702C48.2399 78.1026 51.0159 79.5958 54.0399 79.942C57.064 80.2881 60.1056 79.4608 62.5377 77.6305C62.6336 78.2561 62.9295 78.8338 63.3811 79.2773C63.8326 79.7208 64.4156 80.0062 65.0428 80.0908C65.67 80.1755 66.3078 80.0548 66.8608 79.7469C67.4137 79.4391 67.8522 78.9604 68.1106 78.3827L79.5699 52.7678C79.8845 52.0631 80.0483 51.3004 80.0508 50.5287C80.0533 49.7569 79.8944 48.9932 79.5844 48.2865ZM45.6232 68.1146H53.34L48.84 72.6146C47.5292 71.5514 46.4995 70.1827 45.8413 68.6285L45.6232 68.1146ZM54.5426 69.3172V74.8862C53.0408 74.7715 51.5825 74.3288 50.2703 73.5894L54.5426 69.3172ZM56.2432 69.3172L60.4675 73.5415C59.1724 74.2863 57.7312 74.7413 56.2432 74.8754V69.3172ZM61.8903 72.5592L57.4458 68.1146H65.0973L64.6478 69.0537C63.9964 70.41 63.0551 71.6067 61.8903 72.5592ZM64.8527 66.414H52.1466C51.9109 65.1351 51.9443 63.8211 52.2448 62.5559C52.5452 61.2906 53.1061 60.1019 53.8916 59.0654C54.677 58.029 55.6699 57.1677 56.8068 56.5364C57.9438 55.9051 59.1998 55.5177 60.4948 55.3989V57.0605H62.1954V55.3985C63.9082 55.5544 65.5446 56.1803 66.9242 57.2071L64.8527 66.414ZM53.6922 42.6051V51.1083H40.0872V42.6051H53.6922ZM58.4694 37.5032H64.2208L66.7718 42.6051H55.9184L58.4694 37.5032ZM55.3929 44.3057H67.6221L68.0579 45.1773C68.1168 45.2954 68.1475 45.4256 68.1476 45.5575V51.7697L67.3265 55.4194C65.7858 54.4273 64.0225 53.8345 62.1954 53.6943V52.8793C62.1921 51.6343 62.6322 50.4289 63.4369 49.479C64.2416 48.5291 65.3582 47.8968 66.5868 47.6955L66.3072 46.0179C64.6811 46.2844 63.2031 47.1214 62.138 48.3787C61.0729 49.636 60.4904 51.2315 60.4948 52.8793V53.6916C58.6786 53.8299 56.9253 54.4177 55.3929 55.4022V44.3057ZM58.7941 32.4013H63.896V35.8025H58.7941V32.4013ZM43.302 30.7006H50.4774L50.9025 32.4013H42.8768L43.302 30.7006ZM49.7654 34.1019L53.1667 40.9044H40.6127L44.014 34.1019H49.7654ZM40.0872 52.8089H53.6922V56.7444C52.6164 57.7741 51.7604 59.011 51.1758 60.3807C50.5912 61.7503 50.2902 63.2242 50.291 64.7133C50.2911 65.2827 50.3348 65.8513 50.4218 66.414H46.9526L47.7378 55.4205C47.7462 55.304 47.7304 55.1871 47.6915 55.0769C47.6527 54.9668 47.5916 54.8659 47.512 54.7804C47.4324 54.695 47.3361 54.6268 47.229 54.5802C47.122 54.5336 47.0065 54.5095 46.8897 54.5095H40.0872V52.8089ZM45.9765 56.2102L45.7335 59.6114H36.6399L36.451 56.2102H45.9765ZM34.7477 56.2102L34.9367 59.6114H31.0395L30.7966 56.2102H34.7477ZM44.4537 77.5286C44.4377 77.7429 44.3415 77.9432 44.1843 78.0896C44.0271 78.236 43.8204 78.3177 43.6056 78.3184H33.1675C32.9526 78.3177 32.746 78.236 32.5887 78.0896C32.4315 77.9432 32.3353 77.7429 32.3193 77.5286L31.161 61.3121H35.0311L35.8369 75.8146L37.5349 75.7204L36.7344 61.3121H45.6121L45.2476 66.414H44.3387C44.1132 66.414 43.8969 66.5036 43.7375 66.663C43.578 66.8225 43.4884 67.0388 43.4884 67.2643V68.1146C43.4864 69.9622 43.9171 71.7846 44.7461 73.4358L44.4537 77.5286ZM46.0611 72.2399C47.2085 73.6327 48.6547 74.7493 50.2924 75.5069C51.9302 76.2646 53.7175 76.6438 55.5218 76.6165C57.3262 76.5891 59.1012 76.1559 60.7152 75.349C62.3293 74.5421 63.741 73.3822 64.8457 71.9553C64.0917 73.8115 62.8079 75.4047 61.1544 76.5361C59.5009 77.6674 57.5509 78.2869 55.5476 78.3173C53.5443 78.3476 51.5764 77.7875 49.8894 76.7067C48.2024 75.6259 46.8709 74.0724 46.0611 72.2399ZM66.5582 77.6883C66.4334 77.967 66.2096 78.1895 65.93 78.3124C65.6505 78.4354 65.3352 78.4501 65.0455 78.3536C64.7557 78.2572 64.5121 78.0565 64.362 77.7906C64.2119 77.5246 64.166 77.2124 64.2332 76.9145L64.4855 75.789C65.2784 74.8518 65.9218 73.7979 66.3929 72.6643L68.0599 74.3314L66.5582 77.6883ZM78.0175 52.0734L77.2138 53.8699L74.7011 51.3573L73.4986 52.5599L76.4704 55.5316L74.8483 59.1573L72.1502 56.4592L70.9477 57.6618L74.1049 60.8191L71.9572 65.6198L69.5992 63.2617L68.3967 64.4643L71.2138 67.2815L68.8033 72.6697L66.9805 70.8468C67.1914 69.9514 67.2977 69.0345 67.2973 68.1146V67.2643C67.2972 67.0642 67.2265 66.8705 67.0976 66.7174C66.9687 66.5643 66.7899 66.4616 66.5928 66.4273L69.8483 51.9586L69.8483 51.9585L70.3929 49.5379C70.5103 49.0161 70.7358 48.5247 71.0549 48.0954C71.3739 47.6661 71.7794 47.3085 72.2452 47.0456C72.711 46.7827 73.2267 46.6204 73.7591 46.5691C74.2915 46.5178 74.8287 46.5787 75.3361 46.7479L75.7347 46.8808C76.2414 47.0501 76.7072 47.3235 77.102 47.6835C77.4969 48.0434 77.8121 48.4819 78.0275 48.9708C78.2453 49.4593 78.357 49.9884 78.3553 50.5232C78.3535 51.058 78.2384 51.5863 78.0175 52.0734Z" fill="#005740"/>
</svg>
