<svg width="109" height="108" viewBox="0 0 109 108" fill="none" xmlns="http://www.w3.org/2000/svg">
<circle cx="54.5" cy="54" r="54" fill="#A8D6AE"/>
<g clip-path="url(#clip0_0_115)">
<path d="M47.625 62.3865V54.0703C47.625 52.4117 46.2758 51.0625 44.6172 51.0625C44.154 51.0625 43.72 51.1768 43.3281 51.3641V46.3359C43.3281 44.6773 41.9789 43.3281 40.3203 43.3281C39.8571 43.3281 39.4231 43.4424 39.0312 43.6298V41.1797C39.0312 39.5211 37.682 38.1719 36.0234 38.1719C34.627 38.1719 33.4591 39.1344 33.123 40.4269C32.592 40.0917 31.9689 39.8906 31.2969 39.8906C29.4011 39.8906 27.8594 41.4323 27.8594 43.3281V57.9375C27.8594 58.081 27.8955 58.2228 27.9642 58.3491L33.1205 67.8023C33.16 67.8736 33.2098 67.9406 33.2674 67.9982L39.9955 74.7262C40.475 75.2058 40.75 75.8701 40.75 76.549V80.2812C40.75 80.7556 41.135 81.1406 41.6094 81.1406H51.9219C52.3962 81.1406 52.7812 80.7556 52.7812 80.2812V69.6052C52.7812 68.513 52.3705 67.4714 51.6254 66.673L47.625 62.3865ZM44.6172 52.7812C45.3279 52.7812 45.9062 53.3596 45.9062 54.0703V60.5448L43.3281 57.7828V54.0703C43.3281 53.3596 43.9065 52.7812 44.6172 52.7812ZM40.3203 45.0469C41.031 45.0469 41.6094 45.6252 41.6094 46.3359V54.0703V55.9412L41.0284 55.319C40.5429 54.7991 39.8562 54.5 39.1438 54.5H39.0312V46.3359C39.0312 45.6252 39.6096 45.0469 40.3203 45.0469ZM34.7344 41.1797C34.7344 40.469 35.3127 39.8906 36.0234 39.8906C36.7341 39.8906 37.3125 40.469 37.3125 41.1797V46.3359V55.1686C36.9309 55.5123 36.6465 55.9635 36.5236 56.48L34.7344 54.2027V43.3281V41.1797ZM51.0625 79.4219H42.4688V76.549C42.4688 75.4017 42.0219 74.3223 41.2106 73.5111L34.5702 66.8707L29.5781 57.7184V43.3281C29.5781 42.3802 30.349 41.6094 31.2969 41.6094C32.2448 41.6094 33.0156 42.3802 33.0156 43.3281V54.5C33.0156 54.6925 33.0801 54.879 33.1995 55.0311L42.6527 67.0623L44.0036 66.001L38.1719 58.5777V57.0781C38.1719 56.6046 38.5577 56.2188 39.0312 56.2188H39.1438C39.381 56.2188 39.6096 56.3184 39.772 56.4912L50.3698 67.8452C50.8159 68.3248 51.0625 68.9495 51.0625 69.6052V79.4219Z" fill="#005740"/>
<path d="M77.7031 39.8906C77.0311 39.8906 76.408 40.0917 75.877 40.4269C75.5409 39.1344 74.373 38.1719 72.9766 38.1719C71.318 38.1719 69.9688 39.5211 69.9688 41.1797V43.6298C69.5769 43.4424 69.1429 43.3281 68.6797 43.3281C67.0211 43.3281 65.6719 44.6773 65.6719 46.3359V51.3641C65.28 51.1768 64.846 51.0625 64.3828 51.0625C62.7242 51.0625 61.375 52.4117 61.375 54.0703V62.3865L57.3746 66.673C56.6295 67.4714 56.2188 68.513 56.2188 69.6052V80.2812C56.2188 80.7556 56.6038 81.1406 57.0781 81.1406H67.3906C67.865 81.1406 68.25 80.7556 68.25 80.2812V76.549C68.25 75.8701 68.525 75.2066 69.0045 74.7262L75.7326 67.9982C75.7902 67.9406 75.84 67.8736 75.8795 67.8023L81.0358 58.3491C81.1045 58.2228 81.1406 58.081 81.1406 57.9375V43.3281C81.1406 41.4323 79.5989 39.8906 77.7031 39.8906ZM71.6875 41.1797C71.6875 40.469 72.2659 39.8906 72.9766 39.8906C73.6873 39.8906 74.2656 40.469 74.2656 41.1797V43.3281V54.2027L72.4764 56.4791C72.3535 55.9627 72.0691 55.5123 71.6875 55.1677V46.3359V41.1797ZM67.3906 46.3359C67.3906 45.6252 67.969 45.0469 68.6797 45.0469C69.3904 45.0469 69.9688 45.6252 69.9688 46.3359V54.5H69.8562C69.1437 54.5 68.4571 54.7991 67.9716 55.319L67.3906 55.942V54.0703V46.3359ZM63.0938 54.0703C63.0938 53.3596 63.6721 52.7812 64.3828 52.7812C65.0935 52.7812 65.6719 53.3596 65.6719 54.0703V57.7828L63.0938 60.5448V54.0703ZM79.4219 57.7184L74.4298 66.8698L67.7894 73.5102C66.9781 74.3223 66.5312 75.4009 66.5312 76.549V79.4219H57.9375V69.6052C57.9375 68.9495 58.1841 68.3248 58.631 67.8461L69.2288 56.492C69.3904 56.3184 69.619 56.2188 69.8562 56.2188H69.9688C70.4423 56.2188 70.8281 56.6046 70.8281 57.0781V58.5777L64.9964 66.0002L66.3473 67.0615L75.8005 55.0302C75.9199 54.879 75.9844 54.6925 75.9844 54.5V43.3281C75.9844 42.3802 76.7552 41.6094 77.7031 41.6094C78.651 41.6094 79.4219 42.3802 79.4219 43.3281V57.7184Z" fill="#005740"/>
<path d="M67.3751 34.9389C67.2308 32.6203 66.068 30.5312 64.1868 29.2069C61.4411 27.275 57.7321 27.4434 55.1668 29.6159L54.5 30.1814L53.8322 29.6159C51.267 27.4434 47.5588 27.275 44.8122 29.2069C42.9311 30.5312 41.7683 32.6203 41.624 34.9389C41.4787 37.2644 42.3759 39.4893 44.0861 41.0439L53.9216 49.9891C54.0858 50.1378 54.2929 50.2126 54.5 50.2126C54.7071 50.2126 54.9142 50.1378 55.0783 49.9891L64.9139 41.0439C66.6232 39.4893 67.5204 37.2644 67.3751 34.9389ZM54.5 48.1931L45.2428 39.7738C43.9211 38.5715 43.2276 36.8484 43.3401 35.0472C43.4518 33.252 44.3499 31.6355 45.8022 30.6137C46.7811 29.9245 47.9189 29.5841 49.055 29.5841C50.3629 29.5841 51.6683 30.0353 52.7211 30.9282L53.944 31.9646C54.2645 32.2353 54.7346 32.2353 55.0551 31.9646L56.2789 30.9273C58.246 29.261 61.0922 29.1304 63.1977 30.6128C64.65 31.6346 65.5481 33.2511 65.6598 35.0463C65.7724 36.8484 65.0789 38.5715 63.7572 39.7729L54.5 48.1931Z" fill="#005740"/>
</g>
<defs>
<clipPath id="clip0_0_115">
<rect width="55" height="55" fill="white" transform="translate(27 27)"/>
</clipPath>
</defs>
</svg>
